Run_50002
nRows=4
nColumns=164

# SIMM Motion File Header:
name Run_50002
datacolumns 164
datarows 4
otherdata 1
range 2.70000000 2.72500000
endheader
time	pelvis_tilt	pelvis_list	pelvis_rotation	pelvis_tx	pelvis_ty	pelvis_tz	hip_flexion_r	hip_adduction_r	hip_rotation_r	knee_angle_r	ankle_angle_r	hip_flexion_l	hip_adduction_l	hip_rotation_l	knee_angle_l	ankle_angle_l	lumbar_extension	lumbar_bending	lumbar_rotation	arm_flex_r	arm_add_r	arm_rot_r	elbow_flex_r	pro_sup_r	arm_flex_l	arm_add_l	arm_rot_l	elbow_flex_l	pro_sup_l	subtalar_angle_r	mtp_angle_r	subtalar_angle_l	mtp_angle_l	wrist_flex_r	wrist_dev_r	wrist_flex_l	wrist_dev_l	LASI_tx	LASI_ty	LASI_tz	RASI_tx	RASI_ty	RASI_tz	LPSI_tx	LPSI_ty	LPSI_tz	RPSI_tx	RPSI_ty	RPSI_tz	RTH1_tx	RTH1_ty	RTH1_tz	RTH2_tx	RTH2_ty	RTH2_tz	RTH3_tx	RTH3_ty	RTH3_tz	LTH1_tx	LTH1_ty	LTH1_tz	LTH2_tx	LTH2_ty	LTH2_tz	LTH3_tx	LTH3_ty	LTH3_tz	RTB1_tx	RTB1_ty	RTB1_tz	RTB2_tx	RTB2_ty	RTB2_tz	RTB3_tx	RTB3_ty	RTB3_tz	LTB1_tx	LTB1_ty	LTB1_tz	LTB2_tx	LTB2_ty	LTB2_tz	LTB3_tx	LTB3_ty	LTB3_tz	RCAL_tx	RCAL_ty	RCAL_tz	RTOE_tx	RTOE_ty	RTOE_tz	RMT5_tx	RMT5_ty	RMT5_tz	LCAL_tx	LCAL_ty	LCAL_tz	LTOE_tx	LTOE_ty	LTOE_tz	LMT5_tx	LMT5_ty	LMT5_tz	LACR_tx	LACR_ty	LACR_tz	RACR_tx	RACR_ty	RACR_tz	CLAV_tx	CLAV_ty	CLAV_tz	C7_tx	C7_ty	C7_tz	RUA1_tx	RUA1_ty	RUA1_tz	RUA2_tx	RUA2_ty	RUA2_tz	RUA3_tx	RUA3_ty	RUA3_tz	RLEL_tx	RLEL_ty	RLEL_tz	RMEL_tx	RMEL_ty	RMEL_tz	LUA1_tx	LUA1_ty	LUA1_tz	LUA2_tx	LUA2_ty	LUA2_tz	LUA3_tx	LUA3_ty	LUA3_tz	LLEL_tx	LLEL_ty	LLEL_tz	LMEL_tx	LMEL_ty	LMEL_tz	RFAsuperior_tx	RFAsuperior_ty	RFAsuperior_tz	RFAradius_tx	RFAradius_ty	RFAradius_tz	RFAulna_tx	RFAulna_ty	RFAulna_tz	LFAsuperior_tx	LFAsuperior_ty	LFAsuperior_tz	LFAradius_tx	LFAradius_ty	LFAradius_tz	LFAulna_tx	LFAulna_ty	LFAulna_tz
      2.70000000	     -4.87849715	      7.60631329	     -3.94349151	      0.74648666	      0.97520773	     -0.35869167	    -25.85208895	     -8.17477269	     -3.13614475	     -9.00883081	    -22.68817030	     55.43884811	      4.19429770	    -10.59671028	    -78.22227757	      7.32883867	     -8.00157645	     -7.22089865	     12.32414259	     19.02611766	    -28.20330212	     20.48214394	    123.42959159	     74.67871254	    -57.09428005	    -30.47330685	    -27.57625416	    122.15979680	     83.03968006	      0.00000000	      0.00000000	      0.00000000	      0.00000000	      0.00000000	      0.00000000	      0.00000000	      0.00000000	      0.75763254	      1.00968230	     -0.47297350	      0.75134861	      0.98052245	     -0.24235381	      0.59183002	      1.03583971	     -0.40794436	      0.59132984	      1.03435741	     -0.31712396	      0.62853704	      0.82086741	     -0.19847918	      0.61980964	      0.69086128	     -0.22760465	      0.47840409	      0.62734637	     -0.22798794	      0.77678086	      0.90436154	     -0.53534470	      0.88650110	      0.85706485	     -0.51694305	      0.92425636	      0.71346423	     -0.52268004	      0.40875760	      0.42409430	     -0.28273460	      0.33712352	      0.39803574	     -0.22582101	      0.28415709	      0.28986324	     -0.29151689	      0.99129936	      0.51475409	     -0.44551324	      0.90302529	      0.43758467	     -0.49303651	      0.87478945	      0.36274290	     -0.41656451	      0.11961631	      0.27258598	     -0.29712657	      0.23080575	      0.08580754	     -0.32336338	      0.18906194	      0.09124974	     -0.23476470	      0.71623543	      0.29392360	     -0.41605279	      0.91861689	      0.21631029	     -0.39350399	      0.88643191	      0.18849481	     -0.47754936	      0.69421556	      1.47877634	     -0.51138983	      0.79022506	      1.44868475	     -0.16736183	      0.83956968	      1.41288272	     -0.34655620	      0.71096686	      1.50031287	     -0.33308796	      0.81369244	      1.33418374	     -0.11658253	      0.84737837	      1.27354328	     -0.13449608	      0.78172983	      1.23409766	     -0.05536675	      0.83633696	      1.16772149	     -0.05015922	      0.76988354	      1.12249492	     -0.09600464	      0.63121640	      1.45686675	     -0.55691999	      0.55853121	      1.42138049	     -0.53434997	      0.57191918	      1.40690221	     -0.61287110	      0.48881843	      1.34913069	     -0.66923591	      0.44927650	      1.30686522	     -0.60226555	      0.89439368	      1.19916278	     -0.10317243	      0.96538461	      1.25506406	     -0.24317133	      0.98425889	      1.19062835	     -0.23224296	      0.54696922	      1.31332107	     -0.68566555	      0.68237591	      1.19604397	     -0.65820098	      0.63527715	      1.15884026	     -0.68742612
      2.70833300	     -5.36650079	      7.97331468	     -3.61732389	      0.74802726	      0.97818443	     -0.35891803	    -26.26366021	     -8.62040219	     -5.43046414	    -11.29507768	    -26.10993567	     54.94337546	      4.92547635	    -10.20457320	    -71.18525698	      7.36814132	     -7.26959658	     -7.85300668	     13.17709529	     18.74733608	    -28.73812951	     22.73671996	    125.17458507	     75.74571624	    -57.36509435	    -31.75557265	    -28.45182054	    123.14774754	     81.69951283	      0.00000000	      0.00000000	      0.00000000	      0.00000000	      0.00000000	      0.00000000	      0.00000000	      0.00000000	      0.75912574	      1.01342950	     -0.47210564	      0.75339552	      0.98253005	     -0.24369228	      0.59381970	      1.04050145	     -0.40678249	      0.59399755	      1.03889660	     -0.31607323	      0.62733316	      0.82595995	     -0.19799148	      0.61583431	      0.69579210	     -0.22306043	      0.47429898	      0.63454994	     -0.22719170	      0.77747094	      0.90857857	     -0.53553953	      0.88607423	      0.85916106	     -0.51787089	      0.92290100	      0.71414373	     -0.52061520	      0.39740983	      0.43230491	     -0.28026488	      0.32412430	      0.41025891	     -0.22458073	      0.26560141	      0.30479401	     -0.28991769	      1.00203294	      0.51374776	     -0.44562442	      0.92116265	      0.42813991	     -0.49299108	      0.90106617	      0.35044531	     -0.41682777	      0.10554142	      0.30104353	     -0.29773602	      0.19562034	      0.10267633	     -0.32128796	      0.15127246	      0.10973672	     -0.23526044	      0.75004925	      0.26538223	     -0.41506013	      0.95973937	      0.21046124	     -0.39321270	      0.93020221	      0.17857219	     -0.47710869	      0.69120965	      1.48092931	     -0.51195984	      0.79369007	      1.45233361	     -0.17053007	      0.83992857	      1.41586675	     -0.35013334	      0.71118300	      1.50273520	     -0.33443757	      0.81966321	      1.33899298	     -0.11895230	      0.85320887	      1.27782407	     -0.13666985	      0.78979500	      1.23989068	     -0.05521148	      0.84413830	      1.17338356	     -0.05191184	      0.77428923	      1.12732385	     -0.09323838	      0.62847180	      1.46022611	     -0.55689250	      0.55612305	      1.42619617	     -0.53475368	      0.56903775	      1.41139895	     -0.61361213	      0.48522592	      1.35414761	     -0.67016981	      0.44652726	      1.31100660	     -0.60350478	      0.89824610	      1.20510603	     -0.10877324	      0.95821916	      1.26108912	     -0.25332969	      0.97921522	      1.19753637	     -0.24394307	      0.54363276	      1.31994678	     -0.68759766	      0.68217187	      1.20574861	     -0.66159976	      0.63574932	      1.16732695	     -0.69043631
      2.71666700	     -5.88797040	      8.10684779	     -3.28859809	      0.74916937	      0.98042321	     -0.35902924	    -25.99388432	     -8.85401555	     -6.82235914	    -15.18103754	    -27.76569252	     54.06990075	      5.41755355	     -9.70537251	    -63.91457751	      7.26972316	     -6.56225696	     -8.24293609	     13.96167184	     18.20517594	    -29.21350644	     24.79677904	    126.63045561	     76.50198643	    -57.42970388	    -33.01968691	    -29.26229905	    124.07968621	     80.60021297	      0.00000000	      0.00000000	      0.00000000	      0.00000000	      0.00000000	      0.00000000	      0.00000000	      0.00000000	      0.76014135	      1.01624617	     -0.47155131	      0.75523607	      0.98519194	     -0.24383769	      0.59515454	      1.04485222	     -0.40559308	      0.59674915	      1.04339536	     -0.31511175	      0.62743051	      0.82988305	     -0.19781299	      0.61540350	      0.69912303	     -0.21934065	      0.47438475	      0.63816049	     -0.22641379	      0.77630729	      0.90956788	     -0.53535866	      0.88409947	      0.85902498	     -0.51953447	      0.92029883	      0.71297646	     -0.51939899	      0.38783636	      0.43796675	     -0.27896634	      0.31310591	      0.42101028	     -0.22448936	      0.24704306	      0.32077934	     -0.28986868	      1.01016202	      0.51104271	     -0.44580580	      0.93729721	      0.41799488	     -0.49311208	      0.92538236	      0.33828519	     -0.41736104	      0.09030876	      0.33071448	     -0.29874087	      0.16058181	      0.12389150	     -0.32017736	      0.11465879	      0.13429066	     -0.23584902	      0.78344272	      0.23844466	     -0.41404622	      0.99786935	      0.20580039	     -0.39372888	      0.97086732	      0.17050586	     -0.47754797	      0.68854816	      1.48229432	     -0.51260711	      0.79711585	      1.45538608	     -0.17343271	      0.84053370	      1.41821178	     -0.35380112	      0.71169733	      1.50466828	     -0.33586755	      0.82423157	      1.34284753	     -0.12088116	      0.85787079	      1.28153873	     -0.13775990	      0.79508763	      1.24471695	     -0.05573071	      0.85000500	      1.17818012	     -0.05325710	      0.77774234	      1.13118800	     -0.09072468	      0.62615278	      1.46265523	     -0.55720465	      0.55393977	      1.42981146	     -0.53565804	      0.56652658	      1.41474491	     -0.61475018	      0.48221059	      1.35780905	     -0.67152176	      0.44443319	      1.31373787	     -0.60525265	      0.90096714	      1.20940758	     -0.11358935	      0.95078111	      1.26457652	     -0.26186867	      0.97318241	      1.20167932	     -0.25518037	      0.54092762	      1.32521614	     -0.69000268	      0.68266295	      1.21440086	     -0.66476566	      0.63708160	      1.17484631	     -0.69351007
      2.72500000	     -6.36497228	      7.96229479	     -2.92640565	      0.75006224	      0.98195013	     -0.35911993	    -25.40034581	     -8.72350024	     -6.86675094	    -20.04400606	    -27.93041486	     52.79619847	      5.69209668	     -9.07678824	    -56.54215232	      6.92795053	     -5.95913911	     -8.34055471	     14.56257730	     17.42565892	    -29.57188023	     26.50282456	    127.66972316	     77.15270778	    -57.34437098	    -34.15624125	    -30.06745290	    124.98969313	     79.74300244	      0.00000000	      0.00000000	      0.00000000	      0.00000000	      0.00000000	      0.00000000	      0.00000000	      0.00000000	      0.76044186	      1.01803785	     -0.47143051	      0.75698332	      0.98819282	     -0.24333220	      0.59603488	      1.04868328	     -0.40450109	      0.59936399	      1.04749824	     -0.31433820	      0.62913872	      0.83210174	     -0.19790940	      0.61816323	      0.70013860	     -0.21781272	      0.47791105	      0.63857237	     -0.22568268	      0.77367990	      0.90765090	     -0.53485951	      0.88113992	      0.85696958	     -0.52163917	      0.91642802	      0.70986341	     -0.51878910	      0.37989907	      0.44233694	     -0.27863636	      0.30383996	      0.43143652	     -0.22523587	      0.22947355	      0.33840132	     -0.29082315	      1.01569665	      0.50661369	     -0.44611990	      0.95109081	      0.40730170	     -0.49323364	      0.94745631	      0.32659162	     -0.41780079	      0.07477966	      0.36183401	     -0.29959332	      0.12734550	      0.14947733	     -0.32063463	      0.08123685	      0.16394423	     -0.23627981	      0.81554168	      0.21358991	     -0.41295788	      1.03237437	      0.20197877	     -0.39512226	      1.00770303	      0.16383747	     -0.47860422	      0.68639478	      1.48292797	     -0.51334652	      0.80052459	      1.45787651	     -0.17604951	      0.84128990	      1.41990036	     -0.35749884	      0.71262196	      1.50619587	     -0.33731212	      0.82715988	      1.34580712	     -0.12236105	      0.86114625	      1.28479504	     -0.13810105	      0.79757636	      1.24850247	     -0.05669503	      0.85370846	      1.18195183	     -0.05436600	      0.77991463	      1.13434594	     -0.08893916	      0.62440649	      1.46417014	     -0.55785601	      0.55206225	      1.43211195	     -0.53709304	      0.56454159	      1.41691908	     -0.61620733	      0.47992938	      1.36014289	     -0.67320432	      0.44310187	      1.31503214	     -0.60741204	      0.90252019	      1.21196452	     -0.11769773	      0.94382450	      1.26561117	     -0.26884030	      0.96685485	      1.20305400	     -0.26516262	      0.53901683	      1.32917202	     -0.69278324	      0.68394361	      1.22198361	     -0.66776404	      0.63933737	      1.18140927	     -0.69665958
